<svg width="314" height="270" viewBox="0 0 314 270" fill="none" xmlns="http://www.w3.org/2000/svg">
<path fill-rule="evenodd" clip-rule="evenodd" d="M50.2773 138.123C50.5538 137.725 50.8357 137.332 51.1229 136.943L51.1624 136.967L50.2773 138.123ZM51.1229 136.943C62.4285 121.611 81.8619 112.715 103.108 116.629C108.251 117.582 113.147 119.322 117.66 121.717L145.291 80.5768C130.049 71.4645 112.22 66.2275 93.1685 66.2275C58.0386 66.2275 27.1297 83.9803 8.81582 111.052L51.1229 136.943ZM93.1685 219.949C116.881 219.949 136.901 204.091 143.228 182.422H193.799C186.706 230.621 144.722 268.442 95.1428 269.399C53.0686 270.147 16.6452 245.456 0.441833 209.61L45.5797 189.205C53.7495 207.366 71.9952 219.949 93.1685 219.949Z" fill="#5FDECC"/>
<path d="M9.57515 106.772L35.7762 0.831033H154.613C164.017 0.831033 168.725 12.2038 162.072 18.851L134.017 46.8795H72.2678L58.6515 85.3099C58.6515 85.3099 39.3655 85.8902 11.7245 107.724C11.0437 108.268 9.57515 110.351 8.8587 111.067L9.57515 106.772Z" fill="#5FDECC"/>
<path d="M176.637 51.7402C172.756 57.8619 168.603 60.3106 164.45 60.2425C161.591 60.2425 159.14 57.9299 159.14 54.733C159.14 53.1686 161.182 47.5231 163.429 41.7415H159.82C157.846 41.7415 158.05 39.0208 159.82 39.0208H164.45C166.56 33.7154 168.671 28.818 169.352 27.4577C170.713 24.6009 172.96 26.3014 171.803 28.9541C171.394 29.9743 169.488 34.2595 167.514 39.0888H174.049C176.228 39.2248 176.296 41.8095 173.913 41.8095H166.424C164.178 47.3871 161.999 52.9646 161.931 54.665C161.795 55.8213 162.884 57.3858 164.927 57.4538C168.875 57.4538 171.803 54.597 174.186 50.6519C175.139 49.1555 177.453 50.6519 176.705 51.8763L176.637 51.7402Z" fill="#FAFDFF"/>
<path d="M170.917 58.8811C170.917 58.8811 170.917 58.473 171.053 58.3369C176.023 46.4337 180.993 33.3742 183.58 27.4566C184.125 26.5043 184.806 26.2322 185.35 26.2322C186.031 26.2322 186.644 26.8444 186.644 27.6606C186.644 27.9327 186.644 28.2728 186.44 28.6129C184.942 31.4697 182.967 36.9791 180.108 43.3729C181.129 42.6927 182.695 42.2846 183.784 42.2846C186.848 42.2846 187.869 43.5089 187.869 45.3454C187.869 48.7463 184.329 54.0518 184.329 56.5004C184.329 57.5207 185.078 57.7928 185.827 57.7928C188.21 57.7928 191.546 54.1878 193.86 50.6509C194.677 49.2905 197.06 50.4468 196.447 51.8072C193.316 57.0446 188.55 60.3775 185.554 60.3775C183.444 60.3775 181.606 58.745 181.606 56.4324C181.606 52.8955 184.874 48.5423 184.874 46.5017C184.874 45.6175 184.397 45.1414 182.967 45.2094C179.019 45.3454 176.568 52.6234 173.708 59.6973C173.436 60.3775 173.096 60.6496 172.619 60.6496C171.802 60.6496 170.985 59.8333 170.985 59.0171L170.917 58.8811Z" fill="#FAFDFF"/>
<path d="M166.105 160.284H167.838L174.454 175.081H172.636L166.929 162.017L161.264 175.081H159.489L166.105 160.284ZM162.406 169.775H171.389V171.234H162.406V169.775Z" fill="white"/>
<path d="M176.796 160.284H178.55L187.872 173.094L187.428 173.242V160.284H189.098V175.081H187.365L178.043 162.292L178.487 162.144V175.081H176.796V160.284Z" fill="white"/>
<path d="M193.599 160.284H195.353L204.675 173.094L204.231 173.242V160.284H205.901V175.081H204.167L194.846 162.292L195.29 162.144V175.081H193.599V160.284Z" fill="white"/>
<path d="M210.401 160.284H212.092V175.081H210.401V160.284Z" fill="white"/>
<path d="M214.46 160.284H216.278L221.372 173.284L226.487 160.284H228.263L222.217 175.081H220.463L214.46 160.284Z" fill="white"/>
<path d="M230.631 160.284H240.671V161.764H232.322V166.837H239.784V168.295H232.322V173.622H240.946V175.081H230.631V160.284Z" fill="white"/>
<path d="M250.022 160.284C251.882 160.284 253.319 160.721 254.334 161.595C255.349 162.454 255.856 163.666 255.856 165.23C255.856 166.851 255.349 168.112 254.334 169.014C253.319 169.902 251.882 170.346 250.022 170.346H246.09V175.081H244.399V160.284H250.022ZM250.022 168.887C251.361 168.887 252.396 168.584 253.129 167.978C253.876 167.358 254.25 166.456 254.25 165.273C254.25 164.117 253.876 163.243 253.129 162.652C252.396 162.06 251.361 161.764 250.022 161.764H246.09V168.887H250.022ZM250.529 169.648H252.241L256.004 175.081H254.08L250.529 169.648Z" fill="white"/>
<path d="M268.045 162.905C267.608 162.609 267.143 162.377 266.65 162.208C266.171 162.025 265.699 161.891 265.234 161.806C264.783 161.722 264.36 161.679 263.966 161.679C263.007 161.679 262.239 161.87 261.662 162.25C261.098 162.63 260.816 163.152 260.816 163.814C260.816 164.392 260.964 164.857 261.26 165.209C261.57 165.562 261.972 165.85 262.465 166.076C262.958 166.301 263.501 166.506 264.092 166.689C264.684 166.858 265.276 167.048 265.868 167.26C266.46 167.457 267.002 167.718 267.496 168.042C267.989 168.352 268.383 168.76 268.679 169.268C268.975 169.761 269.123 170.395 269.123 171.17C269.123 171.987 268.898 172.699 268.447 173.305C267.996 173.897 267.369 174.362 266.566 174.7C265.762 175.024 264.832 175.186 263.775 175.186C263.057 175.186 262.352 175.095 261.662 174.911C260.971 174.714 260.323 174.446 259.717 174.108C259.111 173.77 258.575 173.383 258.11 172.946L258.871 171.572C259.336 172.009 259.844 172.382 260.393 172.692C260.943 173.002 261.507 173.242 262.084 173.411C262.676 173.58 263.247 173.664 263.797 173.664C264.867 173.664 265.713 173.446 266.333 173.009C266.953 172.572 267.263 171.98 267.263 171.234C267.263 170.656 267.115 170.184 266.819 169.817C266.523 169.451 266.129 169.155 265.635 168.93C265.142 168.704 264.6 168.507 264.008 168.338C263.416 168.169 262.817 167.985 262.211 167.788C261.619 167.577 261.077 167.323 260.584 167.027C260.09 166.717 259.696 166.315 259.4 165.822C259.104 165.329 258.956 164.702 258.956 163.941C258.956 163.166 259.167 162.497 259.59 161.933C260.013 161.369 260.612 160.932 261.387 160.622C262.162 160.298 263.057 160.136 264.071 160.136C264.931 160.136 265.769 160.263 266.587 160.517C267.418 160.77 268.144 161.094 268.764 161.489L268.045 162.905Z" fill="white"/>
<path d="M276.913 160.284H278.646L285.262 175.081H283.444L277.737 162.017L272.072 175.081H270.297L276.913 160.284ZM273.214 169.775H282.197V171.234H273.214V169.775Z" fill="white"/>
<path d="M293.226 160.284C295.086 160.284 296.524 160.721 297.538 161.595C298.553 162.454 299.06 163.666 299.06 165.23C299.06 166.851 298.553 168.112 297.538 169.014C296.524 169.902 295.086 170.346 293.226 170.346H289.295V175.081H287.604V160.284H293.226ZM293.226 168.887C294.565 168.887 295.601 168.584 296.334 167.978C297.08 167.358 297.454 166.456 297.454 165.273C297.454 164.117 297.08 163.243 296.334 162.652C295.601 162.06 294.565 161.764 293.226 161.764H289.295V168.887H293.226ZM293.734 169.648H295.446L299.208 175.081H297.285L293.734 169.648Z" fill="white"/>
<path d="M300.558 160.284H302.292L307.09 168.126L311.825 160.284H313.558L307.217 171.043H306.942L300.558 160.284ZM306.265 168.993H307.935V175.081H306.265V168.993Z" fill="white"/>
<path d="M203.734 132.564C204.055 132.564 204.269 132.778 204.269 133.099C204.269 133.42 204.055 133.74 203.734 133.74C197.854 133.847 192.081 135.237 186.521 137.055C180.962 138.872 175.509 141.224 170.27 143.897C169.094 144.432 168.025 144.966 166.956 145.501C160.862 155.337 154.447 164.959 147.391 174.153C143.756 178.857 140.014 183.562 135.845 187.838C131.782 192.221 127.399 196.391 122.16 199.705C119.594 201.309 116.707 202.592 113.5 203.233C111.896 203.447 110.293 203.447 108.582 203.126C107.834 203.02 106.978 202.806 106.123 202.378C105.375 201.95 104.519 201.202 103.985 200.347C103.557 199.385 103.343 198.422 103.45 197.46C103.45 196.605 103.664 195.75 103.878 195.001C104.413 193.397 105.161 192.008 106.016 190.725C107.62 188.159 109.651 185.807 111.576 183.562C115.638 179.178 120.129 175.115 124.726 171.374C129.323 167.525 134.027 163.997 138.838 160.575C146.429 155.23 154.234 150.419 162.359 146.035C163.107 144.966 163.749 143.897 164.39 142.828C170.484 132.671 176.364 122.408 181.924 112.037C185.238 105.729 188.552 99.3148 191.76 92.9C184.169 101.774 176.471 110.647 168.667 119.414C163.321 125.401 157.869 131.281 152.202 137.055C146.643 142.721 140.763 148.387 133.92 152.771C133.065 153.305 132.103 153.84 131.248 154.375C130.285 154.802 129.323 155.123 128.254 155.551C127.292 155.871 126.223 156.192 125.154 156.299C124.084 156.406 122.908 156.406 121.732 156.085C120.556 155.764 119.38 155.016 118.739 153.947C118.097 152.878 117.777 151.809 117.563 150.633C117.242 148.494 117.456 146.356 117.777 144.325C118.525 140.262 119.808 136.413 121.091 132.564C122.588 128.823 124.084 125.081 125.795 121.339C129.109 114.069 132.958 107.012 136.914 99.9562C138.945 96.535 141.083 93.0069 143.329 89.6927C145.574 86.2715 147.712 82.9572 150.599 79.7498C151.347 78.7876 152.737 78.6807 153.699 79.536C154.554 80.2844 154.661 81.6742 153.913 82.6365C153.806 82.6365 153.806 82.6365 153.806 82.6365V82.7434C151.133 85.4162 148.781 88.6235 146.429 91.8309C144.184 95.0383 142.046 98.3525 139.907 101.774C135.631 108.509 131.782 115.458 128.361 122.622C126.543 126.15 124.94 129.785 123.55 133.42C122.053 137.162 120.77 140.904 120.129 144.752C119.808 146.57 119.594 148.601 119.808 150.312C120.129 152.129 120.877 153.519 122.374 153.947C123.871 154.375 125.795 154.054 127.612 153.519C128.468 153.092 129.43 152.771 130.285 152.343C131.141 151.916 131.996 151.488 132.744 150.953C139.373 146.784 145.253 141.224 150.812 135.558C156.372 129.892 161.717 124.011 166.956 117.917C177.327 105.729 187.269 93.2208 196.892 80.3913C197.319 79.8567 198.068 79.536 198.709 79.536C199.351 79.1084 200.206 79.0014 200.847 79.4291C202.023 79.9637 202.451 81.2466 201.916 82.3157C196.678 93.0069 191.118 103.484 185.452 113.962C179.999 123.691 174.44 133.42 168.56 142.935C168.881 142.721 169.201 142.614 169.522 142.4C174.868 139.834 180.427 137.482 186.093 135.665C191.76 133.954 197.64 132.564 203.734 132.564ZM144.825 172.229C150.385 164.745 155.623 156.94 160.541 149.029C153.485 152.985 146.643 157.475 140.014 162.179C135.31 165.6 130.606 169.235 126.116 173.084C121.625 176.826 117.349 180.889 113.393 185.165C111.469 187.41 109.651 189.656 108.154 192.008C107.406 193.291 106.765 194.467 106.337 195.75C105.909 197.032 105.802 198.315 106.337 199.064C106.765 199.812 107.834 200.347 109.117 200.561C110.4 200.774 111.683 200.774 113.072 200.561C115.745 200.026 118.311 198.85 120.663 197.246C125.474 194.253 129.751 190.083 133.706 185.807C137.662 181.53 141.297 176.933 144.825 172.229Z" fill="white"/>
<path d="M236.391 132.885C236.498 133.099 236.498 133.42 236.284 133.527L223.347 141.011C219.071 143.469 214.687 145.928 209.876 147.639C209.235 147.853 208.593 148.067 207.952 148.174C207.31 148.387 206.669 148.494 205.921 148.601C204.638 148.815 203.034 148.815 201.43 148.067C200.682 147.639 199.934 146.998 199.506 146.249C198.971 145.501 198.758 144.752 198.651 143.897C198.33 142.293 198.544 140.904 198.971 139.514C199.292 138.124 199.934 136.841 200.575 135.665C201.216 134.489 202.179 133.313 203.141 132.351C204.103 131.388 205.172 130.426 206.455 129.785C207.097 129.357 207.738 129.036 208.487 128.716C209.235 128.502 209.983 128.288 211.052 128.288H211.373C211.694 128.288 212.122 128.395 212.442 128.609C212.442 128.609 212.442 128.609 212.549 128.609C212.977 128.823 213.404 129.036 213.725 129.357C214.367 130.105 214.474 130.747 214.581 131.282C214.687 131.602 214.687 131.816 214.687 132.03V132.458C214.687 132.564 214.687 132.671 214.581 132.778C214.581 132.885 214.581 133.099 214.474 133.206C214.26 133.847 213.939 134.168 213.725 134.596C212.549 135.879 211.159 136.52 209.983 137.162C208.7 137.696 207.417 138.017 206.134 138.338L204.21 138.765L202.927 138.979C202.713 139.514 202.499 140.048 202.286 140.476C201.965 141.545 201.751 142.507 201.858 143.469C201.965 144.325 202.286 144.966 202.927 145.287C203.569 145.715 204.531 145.822 205.707 145.715C206.241 145.715 206.776 145.608 207.31 145.501C207.952 145.394 208.487 145.287 209.021 145.073C213.618 143.79 218.109 141.545 222.492 139.407L235.749 132.778C236.07 132.564 236.284 132.671 236.391 132.885ZM205.814 135.237C205.386 135.665 204.852 136.093 204.531 136.627L205.386 136.199C206.455 135.772 207.631 135.13 208.593 134.489C209.449 133.954 210.197 133.313 210.625 132.671C210.411 132.671 210.09 132.778 209.876 132.778C209.449 132.992 208.914 133.099 208.487 133.42C207.524 133.847 206.669 134.489 205.814 135.237Z" fill="white"/>
<path d="M273.252 132.778C273.466 133.099 273.359 133.42 273.145 133.74C270.045 136.093 266.944 138.445 263.737 140.583C260.529 142.828 257.215 144.859 253.58 146.57C251.656 147.318 249.838 148.067 247.486 148.281C246.417 148.387 245.134 148.387 243.851 147.853C242.568 147.318 241.499 146.142 240.964 144.966C240.43 143.683 240.216 142.507 240.216 141.438C240.216 140.583 240.216 139.728 240.323 138.872C240.109 139.086 240.002 139.407 239.788 139.728C238.933 140.904 238.078 142.08 237.116 143.256C236.795 143.469 236.581 143.79 236.26 144.004C235.94 144.325 235.726 144.646 235.084 144.966C234.977 144.966 234.87 144.966 234.764 145.073C234.657 145.073 234.55 145.073 234.443 145.073C234.122 145.18 233.694 145.18 233.374 144.966C233.053 144.752 232.732 144.432 232.625 144.218C232.518 144.004 232.411 143.79 232.411 143.576C232.198 142.935 232.305 142.507 232.305 142.08C232.411 140.369 232.839 138.979 233.374 137.482C233.801 136.093 234.443 134.703 235.084 133.313C235.512 132.671 235.94 131.923 236.367 131.282C236.795 130.64 237.329 129.999 238.185 129.25C238.612 128.929 239.147 128.609 239.895 128.502C240.644 128.288 241.713 128.395 242.461 128.823C243.103 129.143 243.53 129.678 243.958 130.212C244.065 130.319 244.065 130.533 244.172 130.64C244.386 130.64 244.493 130.747 244.706 130.747C245.882 131.175 246.417 132.458 245.989 133.527C245.989 133.634 245.989 133.634 245.989 133.74C245.241 135.344 244.706 137.162 244.386 138.872C244.172 139.728 244.065 140.583 244.065 141.331C244.065 142.187 244.172 142.935 244.386 143.469C244.599 144.004 244.813 144.432 245.348 144.646C245.882 144.966 246.524 145.073 247.379 145.073C248.983 144.966 250.8 144.539 252.511 143.897C255.932 142.614 259.353 140.797 262.561 138.872C265.875 136.841 269.082 134.703 272.29 132.564C272.61 132.351 273.038 132.458 273.252 132.778ZM240.751 132.458C240.858 132.458 240.751 132.458 240.644 132.458C240.751 132.458 240.751 132.458 240.751 132.458ZM241.178 134.275C241.178 134.275 241.285 134.168 241.285 134.061C240.964 133.954 240.751 133.634 240.644 133.313C240.644 133.313 240.537 133.206 240.537 133.099C240.537 132.992 240.43 132.778 240.43 132.671C240.109 132.885 239.681 133.206 239.361 133.634C239.04 134.061 238.612 134.596 238.292 135.13C237.543 136.306 236.902 137.482 236.367 138.658C236.046 139.514 235.619 140.476 235.405 141.331C236.367 140.476 237.223 139.407 238.078 138.445C239.147 137.055 240.216 135.665 241.178 134.275Z" fill="white"/>
<path d="M310.107 132.778C310.428 132.778 310.856 132.992 310.963 133.42C310.963 133.74 310.749 134.061 310.428 134.168C307.969 134.81 305.51 135.237 302.837 135.451C301.554 135.451 300.271 135.344 298.989 135.13C297.599 134.81 296.316 134.275 295.14 133.313C294.071 132.351 293.322 130.961 292.895 129.678C292.467 128.288 292.36 127.005 292.146 125.829C292.146 125.615 292.039 125.294 291.932 125.188C291.932 125.081 291.932 125.081 291.932 125.081C291.825 125.188 291.718 125.188 291.505 125.294C290.649 125.722 289.687 126.47 288.832 127.112C285.09 130.212 281.669 133.847 278.354 137.482C275.04 141.117 271.726 144.752 268.625 148.601C268.519 148.601 268.519 148.601 268.519 148.708H268.412C267.556 149.457 266.38 149.563 265.525 148.815C264.777 148.281 264.563 147.425 264.777 146.57C265.097 144.966 266.701 140.904 274.185 128.181C274.826 127.112 276.109 126.791 277.178 127.433C278.248 127.967 278.568 129.357 277.927 130.426C276.965 132.137 276.002 133.954 274.933 135.665C275.254 135.451 275.468 135.13 275.682 134.917C279.317 131.388 282.845 127.967 287.014 124.867C288.083 124.118 289.046 123.37 290.436 122.729C290.863 122.622 291.184 122.408 291.718 122.408C292.039 122.301 292.36 122.408 292.681 122.408C293.001 122.515 293.429 122.729 293.643 122.942C294.177 123.477 294.391 124.011 294.498 124.332C294.605 124.76 294.605 125.081 294.712 125.508C294.819 126.791 294.926 127.967 295.14 129.036C295.46 130.105 295.888 130.961 296.636 131.709C298.026 133.099 300.485 133.634 302.837 133.634C305.296 133.634 307.648 133.313 310.107 132.778Z" fill="white"/>
</svg>
