<svg id="Layer_1" data-name="Layer 1" xmlns="http://www.w3.org/2000/svg" viewBox="0 0 170 45.22"><defs><style>.cls-1,.cls-2{opacity:0.65;}.cls-2{fill:#03abec;}.cls-2,.cls-6{isolation:isolate;}.cls-3{fill:#00b1e8;}.cls-4{fill:#059bcc;}.cls-5{fill:#fff;}</style></defs><title>Finstrin_Logo</title><g id="Logo"><g id="Group_5" data-name="Group 5"><g id="Group_4" data-name="Group 4" class="cls-1"><path id="Path_1" data-name="Path 1" class="cls-2" d="M22.22,5.64H1.2v21h9.14V14.78H22.22Z"/><path id="Path_2" data-name="Path 2" class="cls-2" d="M26.83,1.12h-21v21H15V10.26H26.83Z"/></g><rect id="Rectangle_26" data-name="Rectangle 26" class="cls-3" x="5.81" y="1.12" width="21.02" height="9.14"/><path id="Path_3" data-name="Path 3" class="cls-4" d="M5.81,5.64v16.5h4.53V14.77H15V10.26h7.28V5.64Z"/></g><g id="Group_2907" data-name="Group 2907"><g id="Group_6" data-name="Group 6"><path id="Path_4" data-name="Path 4" class="cls-5" d="M35.13,2.47h.09a11.59,11.59,0,0,1,1.29.22,5.76,5.76,0,0,1,1.28.4,1.45,1.45,0,0,1,.78.7,2.57,2.57,0,0,1,.19,1V23.24a2.28,2.28,0,0,1-.23,1.06,1.39,1.39,0,0,1-.74.65,4,4,0,0,1-1.13.2c-.6.06-1.08.09-1.44.12h-.09v1.47H46.39V25.27H46.3a8.92,8.92,0,0,1-1.36-.2,5.63,5.63,0,0,1-1.14-.3,1.61,1.61,0,0,1-.79-.71,2.26,2.26,0,0,1-.22-1V14.35h2.84a7.09,7.09,0,0,1,1.95.24,2.65,2.65,0,0,1,1.32.88,4.6,4.6,0,0,1,.66,1.42,7.81,7.81,0,0,1,.36,1.78v.09h1.54V8.53H49.93v.08a7.55,7.55,0,0,1-.38,1.77,3.75,3.75,0,0,1-.64,1.2,3.12,3.12,0,0,1-1.23.83,6.14,6.14,0,0,1-2,.28H42.78V2.61H47c.65,0,1.23,0,1.73,0s.95.06,1.32.11A3.81,3.81,0,0,1,52.25,4.5a9.29,9.29,0,0,1,1.56,3l0,.07h1.52V1H35.13Z"/><path id="Path_5" data-name="Path 5" class="cls-5" d="M61.89,6.59a2.24,2.24,0,0,0,1.74-.8,2.71,2.71,0,0,0,.7-1.86,2.37,2.37,0,0,0-.68-1.67,2.33,2.33,0,0,0-1.75-.73,2.23,2.23,0,0,0-1.67.77,2.66,2.66,0,0,0-.7,1.8,2.5,2.5,0,0,0,.7,1.73A2.22,2.22,0,0,0,61.89,6.59Z"/><path id="Path_6" data-name="Path 6" class="cls-5" d="M65.67,25.22a6.75,6.75,0,0,1-.76-.25,1.43,1.43,0,0,1-.71-.57,2.07,2.07,0,0,1-.23-1V8.89l-.31-.32-6.4.4v1.37h.09a7.5,7.5,0,0,1,1.17.18,3.27,3.27,0,0,1,1,.36,2.25,2.25,0,0,1,.7.77,2,2,0,0,1,.25,1v11a2,2,0,0,1-.23,1,1.22,1.22,0,0,1-.7.52,3.12,3.12,0,0,1-.74.14l-.81.07h-.68v1.37h9.31V25.35h-.09A3.78,3.78,0,0,1,65.67,25.22Z"/><path id="Path_7" data-name="Path 7" class="cls-5" d="M87.52,25.25a3.94,3.94,0,0,1-.73-.25,1.32,1.32,0,0,1-.69-.56,1.91,1.91,0,0,1-.2-1V14.24a6.93,6.93,0,0,0-1.25-4.3,4.62,4.62,0,0,0-3.87-1.63,7.1,7.1,0,0,0-2.1.29,6.69,6.69,0,0,0-1.61.73,9.87,9.87,0,0,0-1.23,1c-.4.37-.74.7-1,1V8.89l-.31-.31-6,.4v1.37h.09a6.85,6.85,0,0,1,1,.13,2.21,2.21,0,0,1,.77.3,2.08,2.08,0,0,1,.7.8,2.35,2.35,0,0,1,.25,1.08V23.61a1.92,1.92,0,0,1-.23,1,1.2,1.2,0,0,1-.7.53,3.72,3.72,0,0,1-.74.14l-.86.07h-.27v1.38h9.07V25.36h-.09a6.94,6.94,0,0,1-.9-.12,4,4,0,0,1-.8-.27,1.47,1.47,0,0,1-.71-.57,1.78,1.78,0,0,1-.24-1V13.25c.16-.25.32-.5.5-.73a3.85,3.85,0,0,1,.93-.87,6,6,0,0,1,1.38-.72,4.79,4.79,0,0,1,1.72-.29,2.72,2.72,0,0,1,2.1,1,4.21,4.21,0,0,1,.87,2.86v9.12a2,2,0,0,1-.23,1,1.24,1.24,0,0,1-.7.53,3.61,3.61,0,0,1-.8.13l-.91.08h-.09v1.38h8.87V25.35h-.09A6.15,6.15,0,0,1,87.52,25.25Z"/><path id="Path_8" data-name="Path 8" class="cls-5" d="M102.24,17.82a7.44,7.44,0,0,0-1.76-1.13,18.14,18.14,0,0,0-2.25-.89c-.8-.26-1.48-.5-2-.71a6.67,6.67,0,0,1-1.34-.66,2.44,2.44,0,0,1-.81-.88,3,3,0,0,1-.27-1.31,2.23,2.23,0,0,1,.81-1.72,3.31,3.31,0,0,1,2.26-.72,4.21,4.21,0,0,1,3,1.17,5.68,5.68,0,0,1,1.6,3.07v.08h1.42l-.27-5.9h-1.45l-.4.9a8.23,8.23,0,0,0-1.7-.61,8.76,8.76,0,0,0-2.16-.27,6.21,6.21,0,0,0-4.4,1.53,5,5,0,0,0-1.65,3.77,4.56,4.56,0,0,0,.51,2.2,5.16,5.16,0,0,0,1.32,1.58,7.53,7.53,0,0,0,1.8,1,18.74,18.74,0,0,0,1.89.71c.7.21,1.35.43,1.92.65a6.64,6.64,0,0,1,1.43.73,2.91,2.91,0,0,1,.85.93,2.65,2.65,0,0,1,.29,1.26,2.74,2.74,0,0,1-.9,2.19,4,4,0,0,1-2.6.76,4.37,4.37,0,0,1-2.16-.53,6.05,6.05,0,0,1-1.66-1.31,8.2,8.2,0,0,1-1.12-1.68,6.72,6.72,0,0,1-.6-1.62l0-.08H90.39v6.37h1.69l.34-1.1a8.86,8.86,0,0,0,1.77.95,8,8,0,0,0,7.73-1,5.14,5.14,0,0,0,1.88-4.1,5,5,0,0,0-.4-2.11A4.7,4.7,0,0,0,102.24,17.82Z"/><path id="Path_9" data-name="Path 9" class="cls-5" d="M116.6,24.66a12.91,12.91,0,0,1-1.31.08,3.7,3.7,0,0,1-1.51-.26,1.8,1.8,0,0,1-.82-.75,3.32,3.32,0,0,1-.37-1.27,16.26,16.26,0,0,1-.08-1.85V10.79h5.42V8.87h-5.46V3.34H109V8.87h-3.27v1.92h3.2V22.71a5.05,5.05,0,0,0,.93,3.24,3.93,3.93,0,0,0,3.21,1.16,8.39,8.39,0,0,0,2.59-.34c.69-.22,1.44-.5,2.22-.82l.06,0V24.41l-.13.05A5.46,5.46,0,0,1,116.6,24.66Z"/><path id="Path_10" data-name="Path 10" class="cls-5" d="M134.36,21.65a7.62,7.62,0,0,1-2.21,2.67,4.91,4.91,0,0,1-2.71.73,5.57,5.57,0,0,1-2.66-.59,5,5,0,0,1-1.8-1.62,7.65,7.65,0,0,1-1-2.48,14.24,14.24,0,0,1-.33-3.05h11.75V16a10.53,10.53,0,0,0-.4-3,7,7,0,0,0-1.25-2.41,6.11,6.11,0,0,0-2.29-1.7,8.47,8.47,0,0,0-3.37-.62,7.5,7.5,0,0,0-3.45.8A7.77,7.77,0,0,0,122,11.17a9.77,9.77,0,0,0-1.63,3,11,11,0,0,0-.55,3.42,13,13,0,0,0,.51,3.68,8.92,8.92,0,0,0,1.58,3.06,7.42,7.42,0,0,0,2.69,2.08,8.8,8.8,0,0,0,3.79.76,7.63,7.63,0,0,0,4.35-1.27,9.21,9.21,0,0,0,3-3.42l.05-.08-1.43-.87ZM128,9.86a3,3,0,0,1,1.8.5,3.68,3.68,0,0,1,1.1,1.31,6.49,6.49,0,0,1,.53,1.89,12.67,12.67,0,0,1,.17,2h-8A7.15,7.15,0,0,1,125,11.39,3.82,3.82,0,0,1,128,9.85Z"/><path id="Path_11" data-name="Path 11" class="cls-5" d="M142.31,6.59a2.27,2.27,0,0,0,1.74-.8,2.71,2.71,0,0,0,.7-1.86,2.37,2.37,0,0,0-.68-1.67,2.35,2.35,0,0,0-1.76-.73,2.25,2.25,0,0,0-1.66.77,2.56,2.56,0,0,0-.7,1.8,2.5,2.5,0,0,0,.7,1.73A2.22,2.22,0,0,0,142.31,6.59Z"/><path id="Path_12" data-name="Path 12" class="cls-5" d="M146.09,25.22a6.75,6.75,0,0,1-.76-.25,1.39,1.39,0,0,1-.71-.57,2,2,0,0,1-.23-1V8.89l-.31-.32-6.4.4v1.37h.09a7.69,7.69,0,0,1,1.17.18,3.27,3.27,0,0,1,1,.36,2.25,2.25,0,0,1,.7.77,2.15,2.15,0,0,1,.25,1v11a2,2,0,0,1-.23,1,1.22,1.22,0,0,1-.7.52,3.12,3.12,0,0,1-.74.14l-.86.07h-.6v1.37H147V25.35h-.08A3.78,3.78,0,0,1,146.09,25.22Z"/><path id="Path_13" data-name="Path 13" class="cls-5" d="M168.84,25.36a6,6,0,0,1-.85-.11,3.79,3.79,0,0,1-.74-.25,1.35,1.35,0,0,1-.69-.56,2.14,2.14,0,0,1-.2-1V14.24a6.81,6.81,0,0,0-1.25-4.3,4.6,4.6,0,0,0-3.86-1.63,7.06,7.06,0,0,0-2.1.29,6.69,6.69,0,0,0-1.61.73,10,10,0,0,0-1.24,1c-.4.37-.73.7-1,1V8.89L155,8.58l-6,.4v1.37H149a6.67,6.67,0,0,1,1,.13,2.18,2.18,0,0,1,.78.3,2.26,2.26,0,0,1,.7.8,2.35,2.35,0,0,1,.25,1.08V23.61a2,2,0,0,1-.23,1,1.2,1.2,0,0,1-.7.53,3.72,3.72,0,0,1-.74.14l-.78.06h-.38v1.37H158V25.35h-.09c-.3,0-.6-.07-.9-.13a3.93,3.93,0,0,1-.8-.26,1.55,1.55,0,0,1-.71-.58,1.78,1.78,0,0,1-.24-1V13.24c.16-.25.32-.49.5-.73a4,4,0,0,1,.93-.87,5.91,5.91,0,0,1,1.39-.72,5.25,5.25,0,0,1,1.71-.29,2.72,2.72,0,0,1,2.1,1,4.17,4.17,0,0,1,.87,2.85V23.6a1.82,1.82,0,0,1-.23,1,1.2,1.2,0,0,1-.7.53,3.63,3.63,0,0,1-.8.14l-.91.07h-.09v1.37h8.87V25.35Z"/></g></g><g id="Finance_-_Cyber_-_Automation" data-name="Finance - Cyber - Automation" class="cls-6"><g class="cls-6"><path class="cls-5" d="M36.83,42.56h-1V35.29h4.42v.94H36.83v2.33h3.1v.95h-3.1Z"/><path class="cls-5" d="M41.31,36.25a.66.66,0,0,1-.2-.48.7.7,0,0,1,.2-.5.66.66,0,0,1,.49-.2.7.7,0,0,1,.49.2.69.69,0,0,1,.2.5.68.68,0,0,1-.69.68A.63.63,0,0,1,41.31,36.25Zm1,6.31h-1V37.63h1Z"/><path class="cls-5" d="M44.88,39.71v2.85h-1V37.63h.94v.71a1.63,1.63,0,0,1,1.52-.85,1.61,1.61,0,0,1,1.3.54,2.08,2.08,0,0,1,.46,1.41v3.12h-1v-3c0-.83-.39-1.24-1.15-1.24a1,1,0,0,0-.85.38A1.54,1.54,0,0,0,44.88,39.71Z"/><path class="cls-5" d="M49.37,41.24a1.36,1.36,0,0,1,.41-1,1.89,1.89,0,0,1,1.09-.48l1.33-.19c.25,0,.38-.16.38-.37a.84.84,0,0,0-.27-.64,1.16,1.16,0,0,0-.8-.24,1.09,1.09,0,0,0-.78.27,1.1,1.1,0,0,0-.33.72l-.93-.21a1.66,1.66,0,0,1,.65-1.16,2.2,2.2,0,0,1,1.37-.44A2.08,2.08,0,0,1,53,38a1.76,1.76,0,0,1,.5,1.29v2.47a5,5,0,0,0,.06.81h-.94a4.54,4.54,0,0,1,0-.66,1.94,1.94,0,0,1-.6.57,1.86,1.86,0,0,1-1,.24,1.67,1.67,0,0,1-1.19-.43A1.38,1.38,0,0,1,49.37,41.24Zm1.78.67a1.52,1.52,0,0,0,1-.35,1.43,1.43,0,0,0,.39-1.11v-.23l-1.51.23a.87.87,0,0,0-.52.24.65.65,0,0,0-.2.5.7.7,0,0,0,.22.5A.82.82,0,0,0,51.15,41.91Z"/><path class="cls-5" d="M56,39.71v2.85H55V37.63H56v.71A1.82,1.82,0,0,1,58.81,38a2.13,2.13,0,0,1,.45,1.41v3.12h-1v-3c0-.83-.38-1.24-1.15-1.24a1.05,1.05,0,0,0-.85.38A1.54,1.54,0,0,0,56,39.71Z"/><path class="cls-5" d="M62.87,38.37a1.41,1.41,0,0,0-1.06.45,1.75,1.75,0,0,0-.44,1.27,1.78,1.78,0,0,0,.44,1.27,1.41,1.41,0,0,0,1.07.46,1.34,1.34,0,0,0,.94-.3,1.6,1.6,0,0,0,.43-.71l.85.37a2.26,2.26,0,0,1-2.22,1.53A2.33,2.33,0,0,1,61.1,42a2.6,2.6,0,0,1-.71-1.88,2.57,2.57,0,0,1,.71-1.88,2.35,2.35,0,0,1,1.77-.73,2.2,2.2,0,0,1,1.46.46,2.13,2.13,0,0,1,.73,1.11l-.87.36a1.51,1.51,0,0,0-.43-.73A1.21,1.21,0,0,0,62.87,38.37Z"/><path class="cls-5" d="M69.65,40.87l.83.29a2.2,2.2,0,0,1-.8,1.12,2.32,2.32,0,0,1-1.42.43A2.39,2.39,0,0,1,66.5,42a2.87,2.87,0,0,1,0-3.78,2.18,2.18,0,0,1,1.66-.74,2.21,2.21,0,0,1,1.74.7,2.7,2.7,0,0,1,.63,1.88,2.54,2.54,0,0,1,0,.31H66.78a1.45,1.45,0,0,0,.43,1.07,1.42,1.42,0,0,0,1.05.42A1.34,1.34,0,0,0,69.65,40.87Zm-2.84-1.28H69.5a1.32,1.32,0,0,0-.37-.91,1.33,1.33,0,0,0-1-.35,1.25,1.25,0,0,0-.94.37A1.33,1.33,0,0,0,66.81,39.59Z"/><path class="cls-5" d="M76.2,40H73.43V39.2H76.2Z"/><path class="cls-5" d="M82.79,42.71a3.54,3.54,0,0,1-2.55-1,3.66,3.66,0,0,1-1.06-2.77,3.94,3.94,0,0,1,.53-2.05,3.4,3.4,0,0,1,1.34-1.3,3.62,3.62,0,0,1,1.74-.43,3.41,3.41,0,0,1,2.07.62A2.93,2.93,0,0,1,86,37.45l-.93.32a2.23,2.23,0,0,0-.79-1.26,2.34,2.34,0,0,0-1.47-.45,2.48,2.48,0,0,0-1.83.76A3.3,3.3,0,0,0,81,41a2.48,2.48,0,0,0,1.83.76,2.32,2.32,0,0,0,1.48-.47,2.49,2.49,0,0,0,.83-1.27l.89.33a3.08,3.08,0,0,1-1.14,1.69A3.29,3.29,0,0,1,82.79,42.71Z"/><path class="cls-5" d="M88.3,44.62H87.24L88.47,42l-2.12-4.39h1.11L89,41l1.47-3.4h1Z"/><path class="cls-5" d="M93.38,42.56h-.95V35.14h.95v3.19a1.56,1.56,0,0,1,.62-.6,2,2,0,0,1,1-.24,2,2,0,0,1,1.67.73,2.8,2.8,0,0,1,.6,1.85A2.84,2.84,0,0,1,96.66,42a2,2,0,0,1-1.68.74,1.7,1.7,0,0,1-1.6-.85Zm2.52-1.21a2,2,0,0,0,.39-1.28,2,2,0,0,0-.39-1.27,1.32,1.32,0,0,0-1.06-.46,1.37,1.37,0,0,0-1.06.47,1.85,1.85,0,0,0-.41,1.26,2,2,0,0,0,.41,1.28,1.34,1.34,0,0,0,1.06.48A1.32,1.32,0,0,0,95.9,41.35Z"/><path class="cls-5" d="M102,40.87l.83.29a2.15,2.15,0,0,1-.8,1.12,2.29,2.29,0,0,1-1.41.43A2.39,2.39,0,0,1,98.83,42a2.87,2.87,0,0,1,0-3.78,2.16,2.16,0,0,1,1.66-.74,2.21,2.21,0,0,1,1.74.7,2.7,2.7,0,0,1,.62,1.88,1.42,1.42,0,0,1,0,.31H99.1a1.49,1.49,0,0,0,.44,1.07,1.42,1.42,0,0,0,1,.42A1.33,1.33,0,0,0,102,40.87Zm-2.84-1.28h2.7a1.32,1.32,0,0,0-.37-.91,1.33,1.33,0,0,0-1-.35,1.27,1.27,0,0,0-1,.37A1.38,1.38,0,0,0,99.13,39.59Z"/><path class="cls-5" d="M106.8,37.58v1a2,2,0,0,0-.42,0c-.9,0-1.35.51-1.35,1.52v2.47h-1V37.63h1v.86a1.52,1.52,0,0,1,1.47-.94A1.66,1.66,0,0,1,106.8,37.58Z"/><path class="cls-5" d="M112.29,40h-2.77V39.2h2.77Z"/><path class="cls-5" d="M120.76,42.56l-.79-2h-3.22l-.77,2h-1.07l2.89-7.27H119l2.89,7.27Zm-2.41-6.22-1.24,3.26h2.5Z"/><path class="cls-5" d="M125.76,42a1.28,1.28,0,0,1-.59.56,2.07,2.07,0,0,1-.86.18,1.71,1.71,0,0,1-1.34-.55,2,2,0,0,1-.51-1.42V37.63h1v3a1.5,1.5,0,0,0,.27.92,1,1,0,0,0,.84.35,1.06,1.06,0,0,0,.87-.34,1.34,1.34,0,0,0,.3-.92v-3h1v4a6.66,6.66,0,0,0,0,.91h-.93A4.42,4.42,0,0,1,125.76,42Z"/><path class="cls-5" d="M129.61,36.07v1.56h1.06v.87h-1.06v2.57a.58.58,0,0,0,.68.67,1.43,1.43,0,0,0,.38,0v.82a1.91,1.91,0,0,1-.65.09,1.35,1.35,0,0,1-1-.37,1.41,1.41,0,0,1-.37-1V38.5h-.94v-.87H128a.74.74,0,0,0,.57-.21.81.81,0,0,0,.19-.55v-.8Z"/><path class="cls-5" d="M132.21,38.22a2.57,2.57,0,0,1,3.61,0,2.82,2.82,0,0,1,0,3.75,2.6,2.6,0,0,1-3.63,0,2.82,2.82,0,0,1,0-3.75Zm.71,3.17a1.45,1.45,0,0,0,1.09.46,1.47,1.47,0,0,0,1.1-.46,2.13,2.13,0,0,0,0-2.59,1.47,1.47,0,0,0-1.1-.46,1.45,1.45,0,0,0-1.09.46,2.13,2.13,0,0,0,0,2.59Z"/><path class="cls-5" d="M138.72,42.56h-.95V37.63h.92v.66a1.52,1.52,0,0,1,.63-.6,2,2,0,0,1,.87-.2,1.78,1.78,0,0,1,.88.23,1.46,1.46,0,0,1,.59.7,1.74,1.74,0,0,1,1.65-.93,1.7,1.7,0,0,1,1.21.48,1.86,1.86,0,0,1,.49,1.39v3.2h-.95V39.47a1.22,1.22,0,0,0-.26-.82,1,1,0,0,0-.79-.31,1.09,1.09,0,0,0-.82.35,1.29,1.29,0,0,0-.31.89v3h-1V39.47a1.17,1.17,0,0,0-.26-.82.94.94,0,0,0-.78-.31,1,1,0,0,0-.83.35,1.24,1.24,0,0,0-.32.9Z"/><path class="cls-5" d="M146.24,41.24a1.36,1.36,0,0,1,.41-1,1.92,1.92,0,0,1,1.09-.48l1.33-.19c.25,0,.38-.16.38-.37a.84.84,0,0,0-.27-.64,1.13,1.13,0,0,0-.79-.24,1.09,1.09,0,0,0-.78.27,1.07,1.07,0,0,0-.34.72l-.92-.21a1.61,1.61,0,0,1,.64-1.16,2.2,2.2,0,0,1,1.37-.44,2.08,2.08,0,0,1,1.55.51,1.73,1.73,0,0,1,.5,1.29v2.47a4.89,4.89,0,0,0,.07.81h-.95a4.54,4.54,0,0,1-.05-.66,1.74,1.74,0,0,1-.6.57,1.86,1.86,0,0,1-1,.24,1.67,1.67,0,0,1-1.19-.43A1.41,1.41,0,0,1,146.24,41.24Zm1.79.67a1.49,1.49,0,0,0,1-.35,1.43,1.43,0,0,0,.39-1.11v-.23l-1.51.23a.9.9,0,0,0-.52.24.65.65,0,0,0-.19.5.66.66,0,0,0,.22.5A.8.8,0,0,0,148,41.91Z"/><path class="cls-5" d="M153.2,36.07v1.56h1.07v.87H153.2v2.57a.74.74,0,0,0,.16.51.72.72,0,0,0,.53.16,1.48,1.48,0,0,0,.38,0v.82a2,2,0,0,1-.66.09,1.33,1.33,0,0,1-1-.37,1.37,1.37,0,0,1-.37-1V38.5h-.94v-.87h.26a.73.73,0,0,0,.57-.21.77.77,0,0,0,.19-.55v-.8Z"/><path class="cls-5" d="M155.53,36.25a.66.66,0,0,1-.2-.48.68.68,0,0,1,.69-.7.68.68,0,0,1,.49.2.66.66,0,0,1,.21.5.63.63,0,0,1-.21.48.64.64,0,0,1-.49.2A.66.66,0,0,1,155.53,36.25Zm1,6.31h-.95V37.63h.95Z"/><path class="cls-5" d="M158.44,38.22a2.58,2.58,0,0,1,3.62,0,2.82,2.82,0,0,1,0,3.75,2.6,2.6,0,0,1-3.63,0,2.83,2.83,0,0,1,0-3.75Zm.72,3.17a1.45,1.45,0,0,0,1.09.46,1.47,1.47,0,0,0,1.1-.46,2.13,2.13,0,0,0,0-2.59,1.47,1.47,0,0,0-1.1-.46,1.45,1.45,0,0,0-1.09.46,2.13,2.13,0,0,0,0,2.59Z"/><path class="cls-5" d="M165,39.71v2.85h-1V37.63H165v.71a1.63,1.63,0,0,1,1.52-.85,1.61,1.61,0,0,1,1.3.54,2.08,2.08,0,0,1,.46,1.41v3.12h-1v-3c0-.83-.39-1.24-1.15-1.24a1,1,0,0,0-.85.38A1.54,1.54,0,0,0,165,39.71Z"/></g></g></g></svg>